<svg xmlns="http://www.w3.org/2000/svg" viewBox="0 0 520 420" width="520" height="420" role="img" aria-label="Lámina técnica de una página web con sus secciones"><title>Lámina técnica de una página web con sus secciones</title><rect width="520" height="420" fill="#0A0C0F"/><g stroke-width="1" shape-rendering="geometricPrecision"><rect x="22" y="22" width="476" height="376" fill="none" stroke="rgba(243,240,233,.20)"/><path d="M22 34V22h12" stroke="#11E39A" fill="none"/><path d="M498 386V398h-12" stroke="#11E39A" fill="none"/></g><g stroke-width="1.2" fill="none" stroke-linecap="square">
<rect x="62" y="76" width="396" height="268" stroke="rgba(243,240,233,.20)"/>
<path d="M62 112h396" stroke="rgba(243,240,233,.20)"/>
<circle cx="82" cy="94" r="3.2" fill="#11E39A" stroke="none"/>
<circle cx="96" cy="94" r="3.2" fill="rgba(243,240,233,.20)" stroke="none"/>
<circle cx="110" cy="94" r="3.2" fill="rgba(243,240,233,.20)" stroke="none"/>
<rect x="132" y="88" width="180" height="12" stroke="rgba(243,240,233,.10)"/>
<rect x="90" y="148" width="150" height="5" fill="rgba(243,240,233,.55)" stroke="none"/><rect x="90" y="164" width="118" height="5" fill="rgba(243,240,233,.55)" stroke="none"/>
<rect x="90" y="196" width="230" height="3" fill="rgba(243,240,233,.16)" stroke="none"/><rect x="90" y="208" width="198" height="3" fill="rgba(243,240,233,.16)" stroke="none"/><rect x="90" y="220" width="152" height="3" fill="rgba(243,240,233,.16)" stroke="none"/>
<rect x="90" y="248" width="86" height="26" fill="#11E39A" stroke="none"/>
<rect x="186" y="248" width="66" height="26" stroke="rgba(243,240,233,.20)"/>
<rect x="330" y="146" width="108" height="106" stroke="rgba(243,240,233,.20)"/>
<path d="M330 252l108-106M330 146l108 106" stroke="rgba(243,240,233,.10)"/>
<rect x="90" y="300" width="104" height="24" stroke="rgba(243,240,233,.10)"/>
<rect x="206" y="300" width="104" height="24" stroke="rgba(243,240,233,.10)"/>
<rect x="322" y="300" width="104" height="24" stroke="rgba(243,240,233,.10)"/>
</g></svg>
