<svg xmlns="http://www.w3.org/2000/svg" viewBox="0 0 800 450" width="800" height="450" role="img" aria-label="Comparación entre dos plataformas de comercio electrónico"><title>Comparación entre dos plataformas de comercio electrónico</title>
<rect width="800" height="450" fill="#F7F3EC"/>
<rect x="70" y="88" width="290" height="274" rx="20" fill="#FFFFFF" stroke="#12796B" stroke-width="2.6"/>
<rect x="102" y="122" width="72" height="72" rx="18" fill="#12796B"/>
<path d="M120 158l10 11 20-22" stroke="#FFFFFF" stroke-width="5" fill="none" stroke-linecap="round" stroke-linejoin="round"/>
<rect x="102" y="222" width="226" height="9" rx="4.5" fill="#E4E9EC"/><rect x="102" y="245" width="190" height="9" rx="4.5" fill="#E4E9EC"/><rect x="102" y="268" width="150" height="9" rx="4.5" fill="#E4E9EC"/><rect x="102" y="291" width="200" height="9" rx="4.5" fill="#E4E9EC"/>
<rect x="102" y="316" width="120" height="20" rx="10" fill="#0B5347"/>
<rect x="440" y="88" width="290" height="274" rx="20" fill="#FFFFFF" stroke="#DFD8CC" stroke-width="2.6"/>
<rect x="472" y="122" width="72" height="72" rx="18" fill="#E6F1EE"/>
<circle cx="508" cy="158" r="17" fill="#E4B85B"/>
<rect x="472" y="222" width="226" height="9" rx="4.5" fill="#EAEEF0"/><rect x="472" y="245" width="150" height="9" rx="4.5" fill="#EAEEF0"/><rect x="472" y="268" width="190" height="9" rx="4.5" fill="#EAEEF0"/><rect x="472" y="291" width="130" height="9" rx="4.5" fill="#EAEEF0"/>
<rect x="472" y="316" width="120" height="20" rx="10" fill="#DFD8CC"/>
<circle cx="400" cy="225" r="46" fill="#FF7A45"/>
<path d="M384 208l32 34M416 208l-32 34" stroke="#FFFFFF" stroke-width="6" stroke-linecap="round"/>
</svg>
